<svg width="382.471" height="117.041" viewBox="0 0 382.471 117.041" xmlns="http://www.w3.org/2000/svg"><g id="svgGroup" stroke-linecap="round" fill-rule="evenodd" font-size="9pt" stroke="#000" stroke-width="0.25mm" fill="none" style="stroke:#000;stroke-width:0.25mm;fill:none"><path d="M 42.774 48.047 L 42.774 83.936 A 5.196 5.196 0 0 1 41.212 87.694 A 6.64 6.64 0 0 1 41.162 87.744 A 5.509 5.509 0 0 1 39.345 88.978 A 5.221 5.221 0 0 1 37.354 89.356 A 5.196 5.196 0 0 1 33.596 87.794 A 6.64 6.64 0 0 1 33.545 87.744 A 5.509 5.509 0 0 1 32.312 85.927 A 5.221 5.221 0 0 1 31.934 83.936 L 31.934 32.52 A 5.899 5.899 0 0 1 32.33 30.328 A 5.443 5.443 0 0 1 33.472 28.565 A 5.111 5.111 0 0 1 37.199 26.955 A 6.704 6.704 0 0 1 37.354 26.953 A 5.332 5.332 0 0 1 41.162 28.491 A 5.131 5.131 0 0 1 42.734 31.765 A 7.06 7.06 0 0 1 42.774 32.52 L 42.774 37.5 Q 47.387 32.747 50.799 30.529 A 21.589 21.589 0 0 1 51.123 30.322 A 32.223 32.223 0 0 1 56.513 27.762 Q 59.967 26.52 63.276 26.384 A 19.771 19.771 0 0 1 64.087 26.367 Q 68.621 26.367 71.951 27.339 A 16.516 16.516 0 0 1 74.268 28.198 A 18.975 18.975 0 0 1 81.006 33.399 A 23.379 23.379 0 0 1 86.306 45.665 A 31.231 31.231 0 0 1 86.572 49.805 L 86.572 83.936 A 5.196 5.196 0 0 1 85.011 87.694 A 6.64 6.64 0 0 1 84.961 87.744 A 5.509 5.509 0 0 1 83.144 88.978 A 5.221 5.221 0 0 1 81.152 89.356 A 5.196 5.196 0 0 1 77.394 87.794 A 6.64 6.64 0 0 1 77.344 87.744 A 5.509 5.509 0 0 1 76.111 85.927 A 5.221 5.221 0 0 1 75.733 83.936 L 75.733 50.977 A 23.856 23.856 0 0 0 75.377 46.727 Q 74.687 42.919 72.656 40.357 A 9.431 9.431 0 0 0 68.272 37.328 Q 65.845 36.475 62.549 36.475 A 20.242 20.242 0 0 0 51.561 39.838 Q 48.48 41.792 45.527 44.882 A 46.995 46.995 0 0 0 42.774 48.047 Z M 192.041 48.047 L 192.041 83.936 A 5.196 5.196 0 0 1 190.48 87.694 A 6.64 6.64 0 0 1 190.43 87.744 A 5.509 5.509 0 0 1 188.612 88.978 A 5.221 5.221 0 0 1 186.621 89.356 A 5.196 5.196 0 0 1 182.863 87.794 A 6.64 6.64 0 0 1 182.813 87.744 A 5.509 5.509 0 0 1 181.579 85.927 A 5.221 5.221 0 0 1 181.201 83.936 L 181.201 32.52 A 5.899 5.899 0 0 1 181.598 30.328 A 5.443 5.443 0 0 1 182.739 28.565 A 5.111 5.111 0 0 1 186.466 26.955 A 6.704 6.704 0 0 1 186.621 26.953 A 5.332 5.332 0 0 1 190.43 28.491 A 5.131 5.131 0 0 1 192.002 31.765 A 7.06 7.06 0 0 1 192.041 32.52 L 192.041 37.5 Q 196.654 32.747 200.067 30.529 A 21.589 21.589 0 0 1 200.391 30.322 A 32.223 32.223 0 0 1 205.781 27.762 Q 209.234 26.52 212.544 26.384 A 19.771 19.771 0 0 1 213.355 26.367 Q 217.889 26.367 221.218 27.339 A 16.516 16.516 0 0 1 223.535 28.198 A 18.975 18.975 0 0 1 230.274 33.399 A 23.379 23.379 0 0 1 235.574 45.665 A 31.231 31.231 0 0 1 235.84 49.805 L 235.84 83.936 A 5.196 5.196 0 0 1 234.279 87.694 A 6.64 6.64 0 0 1 234.229 87.744 A 5.509 5.509 0 0 1 232.411 88.978 A 5.221 5.221 0 0 1 230.42 89.356 A 5.196 5.196 0 0 1 226.662 87.794 A 6.64 6.64 0 0 1 226.611 87.744 A 5.509 5.509 0 0 1 225.378 85.927 A 5.221 5.221 0 0 1 225 83.936 L 225 50.977 A 23.856 23.856 0 0 0 224.645 46.727 Q 223.955 42.919 221.924 40.357 A 9.431 9.431 0 0 0 217.539 37.328 Q 215.112 36.475 211.817 36.475 A 20.242 20.242 0 0 0 200.829 39.838 Q 197.747 41.792 194.795 44.882 A 46.995 46.995 0 0 0 192.041 48.047 Z M 382.031 34.571 L 349.365 113.233 Q 347.925 116.976 344.504 117.04 A 6.395 6.395 0 0 1 344.385 117.041 Q 342.334 117.041 340.796 115.43 A 7.437 7.437 0 0 1 340.002 114.455 Q 339.258 113.35 339.258 112.28 Q 339.258 111.138 339.42 110.278 A 6.248 6.248 0 0 1 339.551 109.717 L 347.315 89.649 L 324.756 34.717 A 6.351 6.351 0 0 1 324.456 33.593 Q 324.356 33.029 324.328 32.381 A 12.012 12.012 0 0 1 324.317 31.861 A 3.977 3.977 0 0 1 324.8 29.995 Q 325.179 29.273 325.855 28.565 Q 327.393 26.953 329.297 26.953 Q 333.122 26.953 334.618 30.105 A 7.238 7.238 0 0 1 334.717 30.322 L 353.174 76.172 L 372.07 30.469 Q 373.479 26.948 376.784 26.948 A 6.423 6.423 0 0 1 377.051 26.953 A 5.589 5.589 0 0 1 379.071 27.307 A 5.067 5.067 0 0 1 380.933 28.565 A 6.609 6.609 0 0 1 381.808 29.69 Q 382.325 30.541 382.439 31.43 A 3.974 3.974 0 0 1 382.471 31.934 Q 382.471 33.492 382.125 34.36 A 2.724 2.724 0 0 1 382.031 34.571 Z M 136.084 11.133 L 130.225 10.401 A 15.774 15.774 0 0 0 127.258 10.663 Q 124.731 11.147 122.974 12.525 Q 120.264 14.649 120.264 20.947 L 120.264 27.539 L 135.352 27.539 A 5.211 5.211 0 0 1 136.992 27.787 A 4.337 4.337 0 0 1 138.721 28.858 A 4.448 4.448 0 0 1 140.019 31.726 A 5.979 5.979 0 0 1 140.039 32.227 A 4.932 4.932 0 0 1 139.758 33.921 A 4.312 4.312 0 0 1 138.648 35.596 Q 137.256 36.914 135.352 36.914 L 120.264 36.914 L 120.264 83.936 A 5.332 5.332 0 0 1 118.726 87.744 A 5.111 5.111 0 0 1 114.999 89.354 A 6.704 6.704 0 0 1 114.844 89.356 A 5.589 5.589 0 0 1 112.824 89.002 A 5.067 5.067 0 0 1 110.962 87.744 A 5.332 5.332 0 0 1 109.424 83.936 L 109.424 36.914 L 102.246 36.914 A 5.211 5.211 0 0 1 100.606 36.666 A 4.337 4.337 0 0 1 98.877 35.596 A 4.448 4.448 0 0 1 97.579 32.728 A 5.979 5.979 0 0 1 97.559 32.227 A 4.932 4.932 0 0 1 97.84 30.532 A 4.312 4.312 0 0 1 98.95 28.858 Q 100.342 27.539 102.246 27.539 L 109.424 27.539 L 109.424 20.508 A 29.588 29.588 0 0 1 110.055 14.203 Q 110.953 10.086 113.13 7.023 A 17.002 17.002 0 0 1 115.283 4.541 A 16.608 16.608 0 0 1 126.079 0.034 A 21.777 21.777 0 0 1 127.295 0 A 24.469 24.469 0 0 1 137.842 2.344 A 7.836 7.836 0 0 1 139.092 3.148 Q 139.727 3.656 140.099 4.233 A 3.21 3.21 0 0 1 140.625 6.006 A 6.041 6.041 0 0 1 140.373 7.788 A 4.953 4.953 0 0 1 139.307 9.668 A 4.477 4.477 0 0 1 137.917 10.732 A 4.181 4.181 0 0 1 136.084 11.133 Z M 288.867 74.121 L 288.867 36.914 L 280.371 36.914 Q 278.62 36.914 278.171 35.425 A 3.788 3.788 0 0 1 278.027 34.571 A 1.882 1.882 0 0 1 278.358 33.522 Q 278.549 33.232 278.85 32.955 A 4.544 4.544 0 0 1 279.199 32.666 L 295.459 16.699 Q 296.174 15.984 296.889 15.732 A 2.369 2.369 0 0 1 297.51 15.601 Q 298.535 15.528 299.121 16.26 A 2.667 2.667 0 0 1 299.698 17.766 A 3.408 3.408 0 0 1 299.707 18.018 L 299.707 27.539 L 313.33 27.539 A 5.211 5.211 0 0 1 314.971 27.787 A 4.337 4.337 0 0 1 316.699 28.858 A 4.448 4.448 0 0 1 317.997 31.726 A 5.979 5.979 0 0 1 318.018 32.227 A 5.211 5.211 0 0 1 317.77 33.867 A 4.337 4.337 0 0 1 316.699 35.596 A 4.448 4.448 0 0 1 313.831 36.894 A 5.979 5.979 0 0 1 313.33 36.914 L 299.707 36.914 L 299.707 73.242 A 11.467 11.467 0 0 0 299.904 75.448 Q 300.446 78.211 302.49 79.395 A 4.78 4.78 0 0 0 303.578 79.858 Q 304.654 80.181 306.232 80.253 A 20.803 20.803 0 0 0 307.178 80.274 A 32.459 32.459 0 0 0 308.675 80.242 Q 310.111 80.175 311.053 79.97 A 5.584 5.584 0 0 0 311.792 79.761 A 8.439 8.439 0 0 1 314.291 79.261 A 9.815 9.815 0 0 1 314.795 79.248 Q 316.406 79.248 317.725 80.493 A 3.962 3.962 0 0 1 318.791 82.265 Q 319.043 83.098 319.043 84.155 A 3.835 3.835 0 0 1 318.741 85.711 Q 318.202 86.94 316.699 87.598 A 33.984 33.984 0 0 1 313.493 88.884 Q 310.371 89.942 307.91 89.942 A 63.836 63.836 0 0 1 304.413 89.85 A 47.923 47.923 0 0 1 301.245 89.575 A 15.014 15.014 0 0 1 295.808 87.794 A 17.202 17.202 0 0 1 295.459 87.598 Q 288.99 83.86 288.87 74.479 A 27.883 27.883 0 0 1 288.867 74.121 Z M 10.986 9.961 L 10.986 83.936 A 5.196 5.196 0 0 1 9.425 87.694 A 6.64 6.64 0 0 1 9.375 87.744 A 5.367 5.367 0 0 1 5.493 89.355 A 6.772 6.772 0 0 1 5.42 89.356 A 5.196 5.196 0 0 1 1.662 87.794 A 6.64 6.64 0 0 1 1.611 87.744 A 5.509 5.509 0 0 1 0.378 85.927 A 5.221 5.221 0 0 1 0 83.936 L 0 9.961 A 5.422 5.422 0 0 1 1.506 6.192 A 7.044 7.044 0 0 1 1.611 6.079 Q 3.223 4.395 5.42 4.395 A 5.422 5.422 0 0 1 9.189 5.901 A 7.044 7.044 0 0 1 9.302 6.006 A 5.246 5.246 0 0 1 10.985 9.815 A 6.428 6.428 0 0 1 10.986 9.961 Z M 161.719 32.52 L 161.719 83.936 A 5.475 5.475 0 0 1 160.254 87.744 A 4.846 4.846 0 0 1 156.753 89.349 A 6.573 6.573 0 0 1 156.445 89.356 A 5.616 5.616 0 0 1 154.116 88.881 A 5.456 5.456 0 0 1 152.49 87.744 A 5.509 5.509 0 0 1 151.257 85.927 A 5.221 5.221 0 0 1 150.879 83.936 L 150.879 32.52 A 6.254 6.254 0 0 1 151.145 30.654 A 4.998 4.998 0 0 1 152.49 28.491 A 5.498 5.498 0 0 1 156.372 26.954 A 7.089 7.089 0 0 1 156.445 26.953 A 5.809 5.809 0 0 1 158.251 27.222 A 4.765 4.765 0 0 1 160.254 28.491 Q 161.719 30.029 161.719 32.52 Z M 265.43 32.52 L 265.43 83.936 A 5.475 5.475 0 0 1 263.965 87.744 A 4.846 4.846 0 0 1 260.464 89.349 A 6.573 6.573 0 0 1 260.156 89.356 A 5.616 5.616 0 0 1 257.827 88.881 A 5.456 5.456 0 0 1 256.201 87.744 A 5.509 5.509 0 0 1 254.968 85.927 A 5.221 5.221 0 0 1 254.59 83.936 L 254.59 32.52 A 6.254 6.254 0 0 1 254.856 30.654 A 4.998 4.998 0 0 1 256.201 28.491 A 5.498 5.498 0 0 1 260.083 26.954 A 7.089 7.089 0 0 1 260.156 26.953 A 5.809 5.809 0 0 1 261.962 27.222 A 4.765 4.765 0 0 1 263.965 28.491 Q 265.43 30.029 265.43 32.52 Z M 162.891 8.496 L 162.891 8.936 A 6.497 6.497 0 0 1 162.492 11.249 A 5.839 5.839 0 0 1 161.133 13.33 A 5.93 5.93 0 0 1 156.907 15.086 A 7.785 7.785 0 0 1 156.738 15.088 L 156.006 15.088 A 6.453 6.453 0 0 1 153.881 14.752 A 5.505 5.505 0 0 1 151.685 13.33 A 6.005 6.005 0 0 1 150.013 9.382 A 7.915 7.915 0 0 1 150 8.936 L 150 8.496 A 6.497 6.497 0 0 1 150.399 6.183 A 5.839 5.839 0 0 1 151.758 4.102 A 5.78 5.78 0 0 1 155.928 2.344 A 7.007 7.007 0 0 1 156.006 2.344 L 156.738 2.344 A 6.497 6.497 0 0 1 159.052 2.743 A 5.839 5.839 0 0 1 161.133 4.102 A 5.93 5.93 0 0 1 162.889 8.327 A 7.785 7.785 0 0 1 162.891 8.496 Z M 266.602 8.496 L 266.602 8.936 A 6.497 6.497 0 0 1 266.202 11.249 A 5.839 5.839 0 0 1 264.844 13.33 A 5.93 5.93 0 0 1 260.618 15.086 A 7.785 7.785 0 0 1 260.449 15.088 L 259.717 15.088 A 6.453 6.453 0 0 1 257.592 14.752 A 5.505 5.505 0 0 1 255.396 13.33 A 6.005 6.005 0 0 1 253.724 9.382 A 7.915 7.915 0 0 1 253.711 8.936 L 253.711 8.496 A 6.497 6.497 0 0 1 254.11 6.183 A 5.839 5.839 0 0 1 255.469 4.102 A 5.78 5.78 0 0 1 259.639 2.344 A 7.007 7.007 0 0 1 259.717 2.344 L 260.449 2.344 A 6.497 6.497 0 0 1 262.763 2.743 A 5.839 5.839 0 0 1 264.844 4.102 A 5.93 5.93 0 0 1 266.6 8.327 A 7.785 7.785 0 0 1 266.602 8.496 Z" vector-effect="non-scaling-stroke" fill="currentColor"/></g></svg>